<?xml version="1.0" standalone="no"?><!DOCTYPE svg PUBLIC "-//W3C//DTD SVG 1.1//EN" "http://www.w3.org/Graphics/SVG/1.1/DTD/svg11.dtd"><svg class="icon" width="200px" height="200.00px" viewBox="0 0 1024 1024" version="1.1" xmlns="http://www.w3.org/2000/svg"><path d="M897.173333 661.333333C950.229333 685.525333 981.333333 714.944 981.333333 746.666667c0 82.474667-210.133333 149.333333-469.333333 149.333333S42.666667 829.141333 42.666667 746.666667c0-31.722667 31.104-61.141333 84.16-85.333334C211.626667 700.032 352.533333 725.333333 512 725.333333c158.570667 0 298.773333-25.024 383.744-63.338666l1.429333-0.661334z m0-234.666666C950.229333 450.858667 981.333333 480.277333 981.333333 512c0 82.474667-210.133333 149.333333-469.333333 149.333333S42.666667 594.474667 42.666667 512c0-31.722667 31.104-61.141333 84.16-85.333333C211.626667 465.365333 352.533333 490.666667 512 490.666667c158.570667 0 298.773333-25.024 383.744-63.338667l1.429333-0.661333zM512 128c259.2 0 469.333333 66.858667 469.333333 149.333333s-210.133333 149.333333-469.333333 149.333334-469.333333-66.858667-469.333333-149.333334 210.133333-149.333333 469.333333-149.333333z" /></svg>