<?xml version="1.0" standalone="no"?><!DOCTYPE svg PUBLIC "-//W3C//DTD SVG 1.1//EN" "http://www.w3.org/Graphics/SVG/1.1/DTD/svg11.dtd"><svg class="icon" width="200px" height="200.00px" viewBox="0 0 1024 1024" version="1.1" xmlns="http://www.w3.org/2000/svg"><path d="M617 623.6c9.8-14.7 5.9-34.6-8.8-44.4-20.6-13.8-42.6-25.2-65.4-34 12.5-8.4 24.4-18.1 35.3-29 43.8-43.8 67.9-101.9 67.9-163.8s-24.2-120.2-68-163.9c-43.8-43.8-101.9-67.9-163.8-67.9s-120.1 24.1-163.8 67.9c-43.8 43.8-67.9 101.9-67.9 163.8 0 61.9 24.1 120.1 67.9 163.8 12.3 12.3 25.8 23.1 40.1 32.2-0.6 0.2-1.2 0.5-1.7 0.7-40.3 17-76.5 41.5-107.6 72.5-31.1 31.1-55.5 67.3-72.5 107.6C91 770.9 82 815.2 82 860.9c0 17.7 14.3 32 32 32s32-14.3 32-32c0-73.3 28.5-142.3 80.4-194.1 51.8-51.8 120.8-80.4 194.1-80.4 54.5 0 107.1 15.9 152.1 46 14.7 9.8 34.6 5.9 44.4-8.8zM246.5 352.3c0-92.5 75.2-167.7 167.7-167.7s167.7 75.2 167.7 167.7c0 92.5-75.2 167.7-167.7 167.7s-167.7-75.2-167.7-167.7zM922.7 651c-7.2-0.3-13.8-3.3-18.7-8.6-4.9-5.3-7.4-12.1-7.1-19.3 0.2-4 1.3-8 3.2-11.6l0.1-0.1c3.4-6.4 3.3-14-0.3-20.4-1.9-3.3-4.6-6-7.9-7.9L822.7 543c-9.9-5.7-22.5-2.5-28.6 7.3-4.9 7.9-13.4 12.7-22.8 12.7h-0.1c-9.2 0-17.9-4.9-22.7-12.7-5.9-9.8-18.9-13.1-28.7-7.3l-69.2 40c-3.4 1.9-6.1 4.6-8 8-3.6 6.3-3.7 14-0.2 20.5 4.5 8.3 4.3 18-0.4 26.2-4.6 8-12.8 13-22.1 13.3-11.4 0.5-20.3 9.8-20.3 21.2v79.7c0 3.5 1 7.1 2.7 10.3l0.3 0.5 0.4 0.6c3.7 5.9 10 9.7 17 10.1h0.2c14.8 0.7 26.3 13.2 25.6 28-0.1 3.8-1.1 7.5-2.9 11-5 10-1.4 22.2 8.2 27.9l69.5 40c9.8 5.6 22.3 2.6 28.5-6.8 5-7.6 13.4-12.2 22.5-12.2s17.5 4.6 22.4 12.2l0.1 0.1c3.9 6 10.6 9.6 17.8 9.6 3.6 0 7.1-0.9 9.8-2.4l69.7-40.2c9.8-5.6 13.5-17.9 8.3-28-4.1-8.1-3.9-17.7 0.7-25.6 4.6-7.9 12.8-12.9 21.9-13.3 7.4-0.3 13.9-4.3 17.6-10.7l0.3-0.5c1.8-3.2 2.8-6.8 2.8-10.5v-79.8c-0.1-11.4-9-20.7-20.3-21.2z m-21.9 83.9c-15.4 5.4-28.5 16.2-36.8 30.6-8.2 14.2-11 30.7-8.2 46.6l-39.8 23c-12.4-10.4-28.1-16.2-44.4-16.2h-0.1c-16.4 0-32.1 5.8-44.5 16.2l-39.8-23c2.8-15.9 0-32.4-8.3-46.6-8.3-14.4-21.3-25.2-36.8-30.7v-45.5c15.4-5.4 28.5-16.2 36.8-30.6 8.4-14.6 11.2-31.5 8-47.8l39.1-22.6c12.5 10.8 28.5 16.9 45.4 16.9s32.9-6 45.4-16.9l39.1 22.6c-3.2 16.3-0.4 33.2 8 47.8 8.3 14.5 21.4 25.3 36.9 30.7v45.5z"  /><path d="M771.3 636c-41.7 0-75.7 34-75.7 75.7s33.9 75.7 75.7 75.7 75.7-34 75.7-75.7-34-75.7-75.7-75.7z m0 114.9c-21.6 0-39.2-17.6-39.2-39.2s17.6-39.2 39.2-39.2 39.2 17.6 39.2 39.2-17.6 39.2-39.2 39.2z"  /></svg>