<?xml version="1.0" standalone="no"?><!DOCTYPE svg PUBLIC "-//W3C//DTD SVG 1.1//EN" "http://www.w3.org/Graphics/SVG/1.1/DTD/svg11.dtd"><svg t="1650526837135" class="icon" viewBox="0 0 1024 1024" version="1.1" xmlns="http://www.w3.org/2000/svg" p-id="2613" xmlns:xlink="http://www.w3.org/1999/xlink" width="200" height="200"><defs><style type="text/css">@font-face { font-family: feedback-iconfont; src: url("//at.alicdn.com/t/font_1031158_u69w8yhxdu.woff2?t=1630033759944") format("woff2"), url("//at.alicdn.com/t/font_1031158_u69w8yhxdu.woff?t=1630033759944") format("woff"), url("//at.alicdn.com/t/font_1031158_u69w8yhxdu.ttf?t=1630033759944") format("truetype"); }
</style></defs><path d="M776.736 406.483c-94.085 0-170.64-76.545-170.64-170.63 0-94.096 76.556-170.64 170.64-170.64s170.64 76.544 170.64 170.64c0 94.085-76.555 170.63-170.64 170.63z m0-296.698c-69.5 0-126.045 56.556-126.045 126.068s56.545 126.056 126.045 126.056 126.046-56.545 126.046-126.056-56.546-126.068-126.046-126.068zM248.824 958.788c-94.106 0-170.662-76.545-170.662-170.64 0-94.086 76.556-170.63 170.662-170.63 94.086 0 170.64 76.544 170.64 170.63 0 94.095-76.555 170.64-170.64 170.64z m0-296.698c-69.521 0-126.067 56.545-126.067 126.056s56.545 126.068 126.067 126.068c69.501 0 126.046-56.557 126.046-126.068S318.324 662.09 248.824 662.09zM440.449 247.688a21.677 21.677 0 1 0 44.365 0 21.677 21.677 0 1 0-44.365 0z" p-id="2614"></path><path d="M373.48 483.7H188.067c-61.462 0-111.465-49.992-111.465-111.444V186.833c0-61.441 50.003-111.434 111.465-111.434H373.48c61.442 0 111.444 49.993 111.444 111.434 0 12.314-9.983 22.287-22.298 22.287-12.313 0-22.297-9.973-22.297-22.287 0-36.866-29.993-66.86-66.85-66.86H188.067c-36.877 0-66.87 29.994-66.87 66.86v185.423c0 36.877 29.992 66.871 66.87 66.871H373.48c36.857 0 66.85-29.993 66.85-66.87v-59.1c0-12.314 9.983-22.287 22.298-22.287 12.313 0 22.297 9.973 22.297 22.286v59.1c0 61.452-50.005 111.444-111.445 111.444zM835.933 949.253H656.677c-61.441 0-111.444-49.993-111.444-111.434V658.553c0-61.442 50.004-111.434 111.444-111.434h179.256c61.462 0 111.465 49.992 111.465 111.434V837.82c0 61.44-50.003 111.433-111.465 111.433zM656.677 591.692c-36.877 0-66.85 29.993-66.85 66.86v179.267c0 36.866 29.973 66.86 66.85 66.86h179.256c36.877 0 66.87-29.994 66.87-66.86V658.553c0-36.867-29.992-66.86-66.87-66.86H656.677z" p-id="2615"></path></svg>